<svg width="73" height="31" viewBox="0 0 73 31" fill="none" xmlns="http://www.w3.org/2000/svg">
<path d="M61.3075 0.306067C62.3685 0.674176 62.8032 1.46536 63.3734 2.37202C63.5925 2.71018 63.8118 3.04812 64.0315 3.38586C64.1467 3.56404 64.2619 3.74221 64.3806 3.92579C64.9689 4.82575 65.5797 5.71005 66.1893 6.59574C66.4552 6.98467 66.7211 7.37364 66.9869 7.76262C67.5992 8.65717 68.215 9.54921 68.8327 10.4401C69.2641 11.0634 69.6936 11.688 70.1229 12.3128C70.3359 12.622 70.5497 12.9306 70.7644 13.2386C71.0667 13.6726 71.3661 14.1085 71.665 14.5449C71.8396 14.7974 72.0143 15.0498 72.1942 15.31C72.5708 15.9767 72.5708 15.9767 72.5708 16.9561C71.8435 16.9561 71.1163 16.9561 70.3671 16.9561C70.3676 17.114 70.3682 17.2719 70.3687 17.4345C70.3741 19.0749 70.3778 20.7153 70.3805 22.3556C70.3818 22.9681 70.3834 23.5807 70.3856 24.1932C70.3885 25.0727 70.3899 25.9521 70.391 26.8315C70.3923 27.1063 70.3935 27.381 70.3948 27.664C70.3948 27.9189 70.3949 28.1737 70.3949 28.4363C70.3954 28.6609 70.396 28.8854 70.3965 29.1168C70.3671 29.6885 70.3671 29.6885 70.1222 30.423C67.996 30.4607 65.8697 30.497 63.7434 30.5315C62.7561 30.5476 61.7688 30.5641 60.7815 30.5818C59.829 30.5988 58.8764 30.6145 57.9238 30.6294C57.5602 30.6353 57.1965 30.6416 56.8329 30.6484C56.3241 30.6579 55.8152 30.6657 55.3064 30.6732C55.0166 30.6781 54.7268 30.683 54.4282 30.6881C53.717 30.6679 53.717 30.6679 52.9825 30.423C52.7746 28.9677 52.7276 27.5606 52.7424 26.0912C52.7526 24.2282 52.6825 22.368 52.6152 20.5065C52.6093 20.3434 52.6034 20.1803 52.5974 20.0123C52.5634 19.0751 52.5285 18.138 52.4928 17.201C51.8464 17.201 51.1999 17.201 50.5339 17.201C50.3666 16.7801 50.3666 16.7801 50.2891 16.2215C50.5712 15.6936 50.5712 15.6936 51.0083 15.1197C51.6438 14.2596 52.2594 13.3979 52.8447 12.5028C53.9867 10.7811 55.1717 9.08975 56.354 7.39552C57.6167 5.58482 58.8674 3.76632 60.1083 1.9406C60.231 1.76039 60.3537 1.58018 60.4802 1.39452C60.5873 1.23674 60.6944 1.07896 60.8048 0.916407C61.0626 0.55092 61.0626 0.55092 61.3075 0.306067ZM61.3075 4.71343C60.9803 5.09165 60.9803 5.09165 60.6581 5.59337C60.4632 5.8817 60.4632 5.8817 60.2645 6.17586C60.1289 6.38007 59.9934 6.58428 59.8537 6.79468C59.5914 7.185 59.329 7.57523 59.0665 7.96539C58.9246 8.18665 58.7827 8.40791 58.6365 8.63587C58.2479 9.1897 57.8775 9.64345 57.4215 10.1337C55.4463 13.851 55.1094 16.5664 55.2461 20.3626C55.274 21.2227 55.2862 22.0831 55.2995 22.9435C55.3266 24.6217 55.3793 26.2962 55.431 27.9745C59.4711 27.9745 63.5112 27.9745 67.6737 27.9745C67.7306 26.1273 67.7844 24.2834 67.8131 22.436C67.8272 21.5755 67.8459 20.7157 67.8769 19.8556C68.0153 15.9049 68.1248 12.7583 65.3174 9.74046C64.8237 9.19159 64.436 8.58577 64.0382 7.96539C63.9055 7.76812 63.7727 7.57085 63.636 7.3676C63.3696 6.97113 63.1044 6.57382 62.8402 6.17586C62.7103 5.98364 62.5805 5.79142 62.4466 5.59337C62.333 5.4234 62.2193 5.25344 62.1023 5.07832C62.0016 4.95791 61.9009 4.83749 61.7972 4.71343C61.6356 4.71343 61.474 4.71343 61.3075 4.71343Z" fill="white"/>
<path d="M20.8694 0.0373019C21.3715 0.0452724 21.8736 0.0532429 22.3758 0.0612134C23.17 1.72808 23.7604 3.42435 24.3078 5.18592C24.3934 5.45823 24.479 5.73055 24.5671 6.01111C24.7464 6.58256 24.9249 7.1542 25.1029 7.72604C25.3762 8.60344 25.652 9.48002 25.9281 10.3565C26.1023 10.9132 26.2764 11.4698 26.4503 12.0265C26.5742 12.4202 26.5742 12.4202 26.7007 12.8218C26.7759 13.0646 26.8512 13.3075 26.9288 13.5577C26.9954 13.7712 27.0621 13.9848 27.1307 14.2048C27.2729 14.7524 27.2729 14.7524 27.2729 15.487C28.4338 14.4949 29.529 13.4928 30.5439 12.3498C30.9457 12.059 30.9457 12.059 31.4186 12.0834C32.1629 12.4074 32.2724 12.8483 32.5946 13.5827C32.7141 13.8492 32.8335 14.1158 32.9566 14.3905C33.1429 14.8196 33.1429 14.8196 33.333 15.2574C33.5939 15.8417 33.8554 16.4258 34.1173 17.0097C34.2443 17.2947 34.3714 17.5797 34.5023 17.8734C34.964 18.8923 35.4563 19.8929 35.9652 20.8891C36.6187 22.1738 37.2336 23.4663 37.8016 24.7914C38.9434 23.1408 39.9705 21.4299 40.9781 19.6953C41.345 19.0638 41.7134 18.4332 42.0816 17.8026C42.2682 17.483 42.4547 17.1635 42.641 16.8439C43.8164 14.8285 45.0051 12.821 46.194 10.8136C46.5817 10.1587 46.9689 9.5035 47.356 8.84823C47.7027 8.26139 48.0497 7.6747 48.3967 7.08803C48.6416 6.67389 48.8862 6.25959 49.1309 5.84528C52.2887 0.51018 52.2887 0.51018 52.7376 0.0612134C53.1096 0.043633 53.4824 0.0406653 53.8548 0.04591C54.0571 0.0481195 54.2594 0.0503289 54.4679 0.0526052C54.6241 0.0554459 54.7803 0.0582866 54.9413 0.0612134C55.1096 0.472491 55.1096 0.472491 55.1862 1.04063C54.9107 1.60876 54.9107 1.60876 54.4516 2.2955C53.4079 3.90525 52.4499 5.55772 51.4981 7.22318C50.2667 9.37012 49.0142 11.5021 47.7334 13.62C46.312 15.972 44.9365 18.347 43.5788 20.7361C42.4846 22.6616 41.3759 24.5748 40.2271 26.4681C39.4847 27.6958 38.7654 28.9367 38.0464 30.1782C37.5919 30.1223 37.5919 30.1223 37.067 29.9333C36.7621 29.4732 36.7621 29.4732 36.5046 28.8688C36.4073 28.6467 36.3101 28.4246 36.2099 28.1957C36.1089 27.9561 36.008 27.7164 35.9039 27.4695C35.6871 26.9728 35.4697 26.4764 35.2516 25.9803C35.1446 25.7352 35.0375 25.49 34.9272 25.2375C34.5165 24.3183 34.0688 23.4216 33.6084 22.5265C32.5541 20.4627 31.6253 18.346 30.7008 16.2215C29.6868 17.0738 28.7082 17.9397 27.7779 18.8843C27.4943 19.1712 27.4943 19.1712 27.2049 19.4639C27.0658 19.606 26.9266 19.748 26.7831 19.8943C26.3294 19.7456 26.3294 19.7456 25.8037 19.4046C25.494 18.7328 25.494 18.7328 25.2283 17.8664C25.1788 17.7087 25.1293 17.551 25.0783 17.3885C24.9154 16.8666 24.758 16.3433 24.6005 15.8198C24.4881 15.4561 24.3754 15.0926 24.2624 14.7291C23.9654 13.771 23.6729 12.8116 23.3814 11.8518C23.0852 10.8791 22.7849 9.90771 22.4848 8.9362C22.1473 7.84271 21.8102 6.7491 21.4761 5.65457C21.425 5.48726 21.3739 5.31994 21.3213 5.14755C21.1838 4.69696 21.0466 4.2463 20.9093 3.79563C20.7436 3.26247 20.5696 2.73178 20.3878 2.20388C20.1702 1.52428 20.1114 1.01428 20.1721 0.306067C20.417 0.0612134 20.417 0.0612134 20.8694 0.0373019Z" fill="white"/>
<path d="M13.64 0.0277373C13.8109 0.0286842 13.9818 0.0296311 14.1579 0.0306067C14.3279 0.0296598 14.4978 0.0287129 14.6729 0.0277373C15.9476 0.0302051 15.9476 0.0302052 16.4993 0.306067C16.8116 1.64034 16.8116 1.64034 16.4993 2.26489C15.8529 2.26489 15.2065 2.26489 14.5405 2.26489C14.5405 5.65856 14.5405 9.05223 14.5405 12.5487C16.2373 12.5487 17.9341 12.5487 19.6824 12.5487C20.1473 13.0137 19.9575 13.6683 19.9598 14.2847C19.9272 14.7524 19.9272 14.7524 19.6824 15.2421C17.9856 15.2421 16.2887 15.2421 14.5405 15.2421C14.5405 17.5854 14.5405 19.9286 14.5405 22.3429C15.1067 22.3031 15.673 22.2633 16.2564 22.2224C18.7663 22.0649 21.2748 22.0609 23.7888 22.0661C24.5596 22.0674 25.3304 22.0661 26.1012 22.0646C26.5931 22.0647 27.0851 22.065 27.577 22.0655C27.8065 22.065 28.0361 22.0645 28.2725 22.064C28.5905 22.0652 28.5905 22.0652 28.915 22.0663C29.1009 22.0665 29.2868 22.0667 29.4783 22.0669C29.9662 22.098 29.9662 22.098 30.7008 22.3429C31.2438 23.2478 31.4354 23.7214 31.4354 24.7914C28.9495 24.7971 26.4635 24.8014 23.9776 24.8041C22.8234 24.8054 21.6692 24.8071 20.5151 24.8099C19.4021 24.8125 18.2892 24.814 17.1763 24.8146C16.7508 24.8151 16.3252 24.816 15.8997 24.8173C15.3057 24.8191 14.7117 24.8193 14.1178 24.8192C13.9401 24.8201 13.7624 24.821 13.5793 24.8219C12.3647 24.8193 12.3647 24.8193 12.0919 24.5466C12.0673 23.7951 12.0586 23.0491 12.0603 22.2975C12.0598 22.0614 12.0594 21.8253 12.059 21.5821C12.0579 20.7976 12.0586 20.0131 12.0594 19.2287C12.0593 18.6861 12.059 18.1436 12.0587 17.601C12.0583 16.4623 12.0589 15.3236 12.06 14.1849C12.0614 12.7217 12.0606 11.2584 12.0591 9.7952C12.0583 8.67439 12.0585 7.55359 12.0592 6.43278C12.0593 5.89309 12.0591 5.3534 12.0586 4.81371C12.0579 4.06086 12.0589 3.30803 12.0603 2.55518C12.0598 2.32978 12.0593 2.10438 12.0588 1.87215C12.065 0.0307926 12.065 0.0307926 13.64 0.0277373Z" fill="white"/>
<path d="M7.31729 0C8.17428 0.0612134 8.17428 0.0612134 8.66399 0.55092C8.72424 1.03946 8.72424 1.03946 8.72288 1.65092C8.72355 1.88234 8.72422 2.11375 8.72492 2.35219C8.72316 2.60686 8.7214 2.86153 8.71958 3.12391C8.71965 3.39146 8.71972 3.65901 8.7198 3.93467C8.71946 4.82235 8.71564 5.70998 8.71181 6.59765C8.7109 7.2118 8.7102 7.82594 8.70971 8.44009C8.70803 9.89346 8.70417 11.3468 8.69926 12.8002C8.69325 14.6168 8.69062 16.4335 8.6879 18.2502C8.68264 21.4916 8.67437 24.7331 8.66399 27.9745C8.85977 27.974 9.05555 27.9734 9.25726 27.9729C11.0985 27.968 12.9397 27.9642 14.7809 27.9618C15.7276 27.9605 16.6742 27.9588 17.6209 27.956C18.5338 27.9534 19.4467 27.9519 20.3595 27.9513C20.7086 27.9508 21.0576 27.9499 21.4066 27.9486C21.8938 27.9469 22.3811 27.9467 22.8683 27.9467C23.1461 27.9462 23.424 27.9456 23.7103 27.9451C24.3346 27.9745 24.3346 27.9745 24.5795 28.2194C24.597 28.5914 24.6 28.9641 24.5948 29.3365C24.5926 29.5388 24.5904 29.7412 24.5881 29.9496C24.5852 30.1058 24.5824 30.2621 24.5795 30.423C24.0051 30.7102 23.6661 30.6989 23.0261 30.6996C22.8049 30.7004 22.5837 30.7011 22.3558 30.7019C22.1143 30.7014 21.8728 30.7009 21.624 30.7004C21.3723 30.7007 21.1207 30.7009 20.8614 30.7011C20.3241 30.7013 19.7868 30.7008 19.2496 30.6998C18.4495 30.6985 17.6495 30.6998 16.8494 30.7014C14.1551 30.7023 11.4653 30.6644 8.77302 30.5589C8.51931 30.5494 8.2656 30.5399 8.0042 30.5301C7.77251 30.52 7.54082 30.5099 7.30211 30.4994C7.09752 30.4907 6.89294 30.4819 6.68215 30.4728C6.21545 30.423 6.21545 30.423 5.9706 30.1782C5.94605 29.7952 5.93858 29.4111 5.93786 29.0273C5.93681 28.7784 5.93577 28.5294 5.93469 28.273C5.93481 27.9976 5.93492 27.7222 5.93503 27.4385C5.93421 27.1503 5.93339 26.862 5.93254 26.5651C5.93061 25.7723 5.9298 24.9796 5.92965 24.1869C5.92941 23.526 5.92851 22.8652 5.92764 22.2044C5.92565 20.6457 5.92505 19.0871 5.92523 17.5285C5.92537 15.9186 5.92279 14.3087 5.91892 12.6987C5.91573 11.3184 5.91441 9.93809 5.91456 8.55775C5.91463 7.73251 5.91392 6.9073 5.91134 6.08206C5.90895 5.16213 5.90964 4.24225 5.91112 3.32232C5.90974 3.04743 5.90837 2.77254 5.90695 2.48932C5.90798 2.23971 5.909 1.9901 5.91006 1.73293C5.90993 1.51522 5.90979 1.2975 5.90966 1.07319C6.02177 0.112365 6.40271 0.0653275 7.31729 0Z" fill="white"/>
<path d="M0.782765 0.0286938C0.959518 0.029325 1.13627 0.0299563 1.31838 0.0306067C1.49514 0.0299754 1.67189 0.0293442 1.854 0.0286938C2.2978 0.0612134 2.2978 0.0612134 2.54265 0.306067C2.56615 0.696417 2.57249 1.08781 2.57209 1.47887C2.57243 1.73261 2.57277 1.98636 2.57311 2.24779C2.57223 2.52853 2.57135 2.80927 2.57045 3.09851C2.57048 3.39229 2.57052 3.68608 2.57055 3.98876C2.57041 4.79664 2.56918 5.60451 2.56748 6.41239C2.56595 7.25583 2.5658 8.09927 2.56551 8.94271C2.56475 10.5409 2.56274 12.1391 2.56028 13.7373C2.55755 15.5563 2.5562 17.3754 2.55497 19.1944C2.55241 22.9373 2.5481 26.6802 2.54265 30.423C0.920495 30.7291 0.920495 30.7291 0.0941141 30.1782C0.00304405 29.6521 0.00304404 29.6521 0.0041322 28.9869C0.00276858 28.7352 0.00140495 28.4836 0 28.2243C0.00225627 27.9471 0.00451254 27.6699 0.00683719 27.3843C0.00608633 26.9478 0.00608633 26.9478 0.0053203 26.5024C0.00470878 25.7031 0.00738129 24.9039 0.0115707 24.1046C0.015246 23.2694 0.0149647 22.4342 0.0151614 21.5991C0.016066 20.1967 0.0197336 18.7943 0.025249 17.392C0.0323223 15.5897 0.0348532 13.7876 0.0359447 11.9853C0.036918 10.4385 0.0399792 8.89159 0.0433753 7.34472C0.0443804 6.84621 0.045096 6.34769 0.0457737 5.84918C0.0474476 4.9222 0.0507824 3.99524 0.0546601 3.06826C0.0549339 2.79058 0.0552076 2.51291 0.0554896 2.22682C0.0568877 1.97584 0.0582859 1.72486 0.0597264 1.46628C0.0604547 1.24685 0.0611831 1.02743 0.0619335 0.801352C0.103274 0.165093 0.145505 0.0753895 0.782765 0.0286938Z" fill="white"/>
<path d="M0.0941141 0.306067C0.174916 0.306067 0.255717 0.306067 0.338968 0.306067C0.338968 10.0023 0.338968 19.6985 0.338968 29.6885C0.581373 29.7693 0.823778 29.8501 1.07353 29.9333C1.4056 30.1705 1.73321 30.4143 2.05294 30.6679C0.369574 30.4537 0.369574 30.4537 0.0941141 30.1782C0.0706223 29.7909 0.0642714 29.4026 0.0646693 29.0147C0.0643328 28.763 0.0639962 28.5113 0.0636494 28.252C0.0645297 27.9736 0.06541 27.6951 0.066317 27.4082C0.0662812 27.1168 0.0662455 26.8254 0.0662086 26.5252C0.0663504 25.7239 0.0675818 24.9226 0.0692874 24.1213C0.0708139 23.2847 0.0709616 22.4482 0.0712525 21.6116C0.0720147 20.0264 0.0740257 18.4412 0.07648 16.856C0.079213 15.0518 0.0805621 13.2475 0.0817922 11.4433C0.0843543 7.73088 0.0886635 4.01847 0.0941141 0.306067Z" fill="white"/>
<path d="M14.0508 1.77519C14.1316 1.77519 14.2124 1.77519 14.2956 1.77519C14.6168 3.47744 14.5675 5.17484 14.5558 6.90181C14.5547 7.20939 14.5536 7.51697 14.5524 7.83388C14.5496 8.58933 14.5455 9.34476 14.5405 10.1002C14.2981 10.0194 14.0557 9.9386 13.8059 9.85535C13.7999 8.74397 13.7954 7.63259 13.7925 6.5212C13.7912 6.14284 13.7896 5.76448 13.7874 5.38612C13.7845 4.84339 13.7831 4.30067 13.782 3.75793C13.7807 3.5878 13.7795 3.41768 13.7782 3.2424C13.7781 2.83484 13.7908 2.42732 13.8059 2.02004C13.8867 1.93924 13.9675 1.85844 14.0508 1.77519Z" fill="white"/>
<path d="M70.8568 13.773C71.1833 14.1811 71.5097 14.5892 71.8362 14.9973C72.023 15.2094 72.2099 15.4215 72.4024 15.64C72.5388 15.8319 72.6751 16.0238 72.8156 16.2215C72.7348 16.4639 72.654 16.7064 72.5708 16.9561C72.2138 16.9693 71.8567 16.9788 71.4995 16.9867C71.3007 16.9924 71.1018 16.9981 70.897 17.0039C70.3671 16.9561 70.3671 16.9561 69.8774 16.4664C69.9986 16.1255 69.9986 16.1255 70.1222 15.7777C70.4037 15.0168 70.4037 15.0168 70.3671 14.2627C70.5287 14.2627 70.6903 14.2627 70.8568 14.2627C70.8568 14.1011 70.8568 13.9395 70.8568 13.773Z" fill="white"/>
<path d="M0.0941143 24.5466C0.174916 24.5466 0.255718 24.5466 0.338968 24.5466C0.338968 26.2434 0.338968 27.9402 0.338968 29.6885C0.581373 29.7693 0.823778 29.8501 1.07353 29.9333C1.4056 30.1705 1.73321 30.4143 2.05294 30.6679C0.369574 30.4537 0.369574 30.4537 0.0941141 30.1782C0.072778 29.7601 0.0679149 29.341 0.0702028 28.9224C0.0709919 28.6691 0.0717809 28.4158 0.0725939 28.1548C0.0746455 27.8883 0.0766971 27.6217 0.0788109 27.3471C0.0799156 27.0796 0.0810203 26.8121 0.0821585 26.5365C0.0850551 25.8732 0.089091 25.2099 0.0941143 24.5466Z" fill="white"/>
<path d="M52.4928 13.0384C52.7352 13.1193 52.9776 13.2001 53.2273 13.2833C52.9602 13.7341 52.6891 14.1826 52.4163 14.63C52.1904 15.005 52.1904 15.005 51.96 15.3875C51.8126 15.5819 51.6652 15.7764 51.5134 15.9767C51.271 15.9767 51.0285 15.9767 50.7788 15.9767C51.16 14.833 51.7789 13.9965 52.4928 13.0384Z" fill="white"/>
<path d="M46.3714 14.2627C46.6138 14.2627 46.8562 14.2627 47.106 14.2627C46.7225 15.3175 46.2041 16.2367 45.6369 17.201C45.3461 16.7878 45.3461 16.7878 45.1472 16.2215C45.4532 15.5941 45.4532 15.5941 45.8817 14.9973C46.0433 14.7549 46.2049 14.5125 46.3714 14.2627Z" fill="white"/>
<path d="M45.392 17.201C45.0566 18.1791 44.5945 18.866 43.9229 19.6495C43.7239 19.1139 43.724 19.1139 43.678 18.4252C44.6847 17.201 44.6847 17.201 45.392 17.201Z" fill="white"/>
<path d="M43.1883 19.6495C43.4307 19.6495 43.6731 19.6495 43.9229 19.6495C43.568 20.5777 43.1512 21.4583 42.6986 22.3429C42.6178 22.3429 42.537 22.3429 42.4538 22.3429C42.4538 21.9389 42.4538 21.5349 42.4538 21.1186C42.6154 21.1186 42.777 21.1186 42.9435 21.1186C42.8627 20.8762 42.7819 20.6338 42.6986 20.3841C42.8602 20.1416 43.0218 19.8992 43.1883 19.6495Z" fill="white"/>
<path d="M58.3693 7.65167C58.6117 7.73247 58.8541 7.81328 59.1038 7.89653C58.7825 8.86045 58.3891 9.42128 57.6347 10.1002C57.8183 8.20259 57.8183 8.20259 58.3693 7.65167Z" fill="white"/>
<path d="M57.8795 5.20314C58.122 5.20314 58.3644 5.20314 58.6141 5.20314C58.3193 5.81371 58.0132 6.3494 57.6347 6.91711C57.1144 7.08545 57.1144 7.08545 56.6553 7.16197C56.8407 6.83361 57.0302 6.50755 57.2215 6.18255C57.3266 6.00075 57.4317 5.81894 57.54 5.63163C57.7081 5.41953 57.7081 5.41953 57.8795 5.20314Z" fill="white"/>
<path d="M14.0508 14.5076C15.3436 14.5076 16.6364 14.5076 17.9684 14.5076C17.9684 14.5884 17.9684 14.6692 17.9684 14.7524C17.7295 14.7616 17.4906 14.7707 17.2444 14.7802C16.7771 14.8043 16.7771 14.8043 16.3004 14.8289C15.8359 14.8502 15.8359 14.8502 15.3621 14.872C14.5488 14.9266 14.5488 14.9266 14.0632 15.3751C13.9358 15.5517 13.9358 15.5517 13.8059 15.7318C13.8867 15.3278 13.9675 14.9238 14.0508 14.5076Z" fill="white"/>
<path d="M6.46031 0.0612134C7.02592 0.0612134 7.59153 0.0612134 8.17428 0.0612134C8.25508 0.222817 8.33588 0.38442 8.41913 0.55092C6.76637 0.795774 6.76637 0.795774 6.21545 0.795774C6.29625 0.553369 6.37706 0.310964 6.46031 0.0612134Z" fill="white"/>
<path d="M71.8362 15.9767C72.1594 16.0575 72.4826 16.1383 72.8156 16.2215C72.7348 16.4639 72.654 16.7064 72.5708 16.9561C71.8435 16.9561 71.1163 16.9561 70.3671 16.9561C70.3671 16.8753 70.3671 16.7945 70.3671 16.7113C70.9327 16.7113 71.4983 16.7113 72.081 16.7113C72.0002 16.4688 71.9194 16.2264 71.8362 15.9767Z" fill="white"/>
<path d="M40.2501 20.8738C40.4925 20.9546 40.7349 21.0354 40.9847 21.1186C40.9081 21.593 40.9081 21.593 40.7398 22.098C40.4974 22.1788 40.255 22.2596 40.0052 22.3429C40.086 21.8581 40.1668 21.3733 40.2501 20.8738Z" fill="white"/>
<path d="M32.1699 13.2833C32.6574 14.0146 32.8901 14.6537 33.1493 15.487C32.8261 15.3254 32.5029 15.1638 32.1699 14.9973C32.1699 14.4317 32.1699 13.8661 32.1699 13.2833Z" fill="white"/>
</svg>
